<svg xmlns="http://www.w3.org/2000/svg" width="64" height="64"><defs><clipPath id="a"><rect width="59.5" height="59.5" x="103.25" y="1110.862" fill="#e9eded" stroke="#66124a" stroke-linecap="round" stroke-linejoin="round" stroke-miterlimit="0" color="#000" style="isolation:auto;mix-blend-mode:normal;solid-color:#000;solid-opacity:1" overflow="visible" rx="29.75" ry="29.75"/></clipPath></defs><g transform="translate(-348.422 -1879.934)"><g transform="translate(-69.752 -.239)"><path fill="#b2cdf8" fill-rule="evenodd" d="M479.676 1933.764v3.455a3.435 3.435 0 0 1-3.43 3.454h-52.14c-1.901 0-3.46-1.54-3.431-3.454l.051-3.455"/><path fill="none" stroke="#0e7bff" stroke-linejoin="round" d="M479.676 1933.764v3.455a3.435 3.435 0 0 1-3.43 3.454h-52.14c-1.901 0-3.46-1.54-3.431-3.454l.051-3.455"/><path fill="#f4f7f8" d="M477.645 1915.8a2.748 2.748 0 0 0-2.744-2.764h-49.397a2.748 2.748 0 0 0-2.744 2.764l-2.031 17.964c0 2.073 1.136 4.146 3.79 4.146h50.956c2.656 0 4.201-2.073 4.201-4.146z"/><path fill="#b2cdf8" fill-rule="evenodd" d="m470.53 1913.227 1.372 21.919h-43.817l1.372-21.919"/><path fill="#6ca6fd" fill-rule="evenodd" d="m428.956 1913.328-1.371 22.318H471.9l-.154-1.972h-40.972c-1.1 0-1.04-.993-1.04-.993l1.158-19.353z"/><path fill="none" stroke="#0e7bff" d="m425.703 1922.018-.412 4.146"/><ellipse cx="425.02" cy="1928.237" fill="#0e7bff" rx=".686" ry=".691"/><path fill="#dae7fc" d="M475.02 1913.068a2.74 2.74 0 0 1 2.448 2.732l2.031 17.965c0 2.073-1.137 4.145-3.79 4.145H424.75c-1.632 0-2.835-.787-3.523-1.873.337.08.692.136 1.078.136h50.957c2.654 0 3.79-2.073 3.79-4.146l-.044-.385c.023-.203.043-.408.043-.613l-2.031-17.961z"/><path fill="#6ca6fd" fill-rule="evenodd" d="m470.53 1913.227 1.372 21.919h-43.817"/><path fill="#dae7fc" d="M425.206 1913.068a2.74 2.74 0 0 0-2.447 2.732l-2.031 17.965c0 2.073 1.137 4.145 3.79 4.145h50.958c1.632 0 2.835-.787 3.523-1.873a4.569 4.569 0 0 1-1.078.136h-50.957c-2.654 0-3.79-2.073-3.79-4.146.005-.664.012-.7 0-.998z"/><path fill="#498ffd" fill-rule="evenodd" d="m430.932 1933.675-2.848 1.47h43.777l-.115-1.47h-40.814z"/><path fill="none" stroke="#0e7bff" stroke-linecap="round" stroke-linejoin="round" d="m470.53 1913.227 1.372 21.919h-43.817l1.372-21.919"/><path fill="none" stroke="#0e7bff" d="M477.645 1915.8a2.748 2.748 0 0 0-2.744-2.764h-49.397a2.748 2.748 0 0 0-2.744 2.764l-2.031 17.964c0 2.073 1.136 4.146 3.79 4.146h50.956c2.656 0 4.201-2.073 4.201-4.146z"/><ellipse cx="193.753" cy="1941.817" fill="#b2cdf8" rx="1.377" ry="1.397" transform="matrix(.99978 .02112 .1447 .98948 0 0)"/><path fill="#0e7bff" d="M474.417 1923.592c-1.036-.022-1.756.812-1.605 1.84.15 1.03 1.119 1.9 2.155 1.921 1.036.022 1.754-.812 1.604-1.84-.15-1.03-1.118-1.899-2.154-1.92zm.146.997c.484.01.93.404 1.002.902.073.498-.26.875-.744.865-.484-.01-.929-.404-1.002-.902-.073-.498.26-.875.744-.865z" color="#000" font-family="sans-serif" font-weight="400" overflow="visible" style="line-height:normal;text-indent:0;text-align:start;text-decoration-line:none;text-decoration-style:solid;text-decoration-color:#000;text-transform:none;block-progression:tb;white-space:normal;isolation:auto;mix-blend-mode:normal;solid-color:#000;solid-opacity:1"/></g><path fill="#6ca6fd" style="isolation:auto;mix-blend-mode:normal;solid-color:#000;solid-opacity:1" d="M386.354 1893.537v2.491h1.274v-2.148" color="#000" overflow="visible"/><path fill="#498ffd" style="isolation:auto;mix-blend-mode:normal;solid-color:#000;solid-opacity:1" d="M368.258 1892.17h6.828c.559 0 1.009.446 1.009 1v.994c0 .555-.45 1.001-1.01 1.001h-6.827c-.559 0-1.009-.446-1.009-1v-.994c0-.555.45-1.001 1.01-1.001z" color="#000" overflow="visible"/><path fill="#0e7bff" d="M368.258 1891.669c-.825 0-1.508.677-1.508 1.502v.994c0 .825.683 1.5 1.508 1.5h6.127a.5.5 0 1 0 0-1h-6.127a.492.492 0 0 1-.508-.5v-.994c0-.284.215-.502.508-.502h2.355a.5.5 0 1 0 0-1h-2.355z" color="#000" font-family="sans-serif" font-weight="400" overflow="visible" style="line-height:normal;text-indent:0;text-align:start;text-decoration-line:none;text-decoration-style:solid;text-decoration-color:#000;text-transform:none;block-progression:tb;white-space:normal;isolation:auto;mix-blend-mode:normal;solid-color:#000;solid-opacity:1"/><path fill="#6ca6fd" d="M120.5 1161.678v-9.316c0-5.817 4.683-10.5 10.5-10.5h5c5.817 0 10.5 4.683 10.5 10.5v9.316" clip-path="url(#a)" color="#000" overflow="visible" style="isolation:auto;mix-blend-mode:normal;solid-color:#000;solid-opacity:1" transform="matrix(.84961 0 0 .8428 266.984 944.036)"/><path fill="#6ca6fd" d="M373.476 1916.938v12.99h13.894v-12.99z" color="#000" overflow="visible" style="isolation:auto;mix-blend-mode:normal;solid-color:#000;solid-opacity:1"/><path fill="#b2cdf8" d="M373.476 1914.35v15.578h2.258v-15.578z" color="#000" overflow="visible" style="isolation:auto;mix-blend-mode:normal;solid-color:#000;solid-opacity:1"/><path fill="#498ffd" d="M385.08 1914.35v15.578h2.258v-15.578z" color="#000" overflow="visible" style="isolation:auto;mix-blend-mode:normal;solid-color:#000;solid-opacity:1"/><path fill="#b2cdf8" d="M378.177 1906.403c-4.883 0-8.815 3.9-8.815 8.744v2.739h2.124v-2.74c0-4.843 3.932-8.743 8.815-8.743z" color="#000" overflow="visible" style="isolation:auto;mix-blend-mode:normal;solid-color:#000;solid-opacity:1"/><path fill="#498ffd" style="isolation:auto;mix-blend-mode:normal;solid-color:#000;solid-opacity:1" d="M382.637 1906.403c4.883 0 8.815 3.9 8.815 8.744v2.739h-2.124v-2.74c0-4.843-3.932-8.743-8.815-8.743z" color="#000" overflow="visible"/><rect width="5.098" height="5.433" x="377.858" y="1902.656" fill="#dae7fc" color="#000" overflow="visible" rx="2.549" ry="1.63" style="isolation:auto;mix-blend-mode:normal;solid-color:#000;solid-opacity:1"/><path fill="#b2cdf8" style="isolation:auto;mix-blend-mode:normal;solid-color:#000;solid-opacity:1" d="M380.407 1902.656c1.412 0 2.549.727 2.549 1.63v2.172c0 .393-.482.753-1.028 1.033-.147.077-.449.21-.449.21 0-1.489-.829-1.329-3.62-2.928v-.488c0-.902 1.136-1.63 2.548-1.63z" color="#000" overflow="visible"/><path fill="#dae7fc" style="isolation:auto;mix-blend-mode:normal;solid-color:#000;solid-opacity:1" d="M386.354 1893.76v5.785c0 2.914-2.652 5.26-5.947 5.26s-5.947-2.346-5.947-5.26v-5.784z" color="#000" overflow="visible"/><path fill="#b2cdf8" style="isolation:auto;mix-blend-mode:normal;solid-color:#000;solid-opacity:1" d="M386.779 1896.036a1.27 1.27 0 0 1 1.274 1.264 1.27 1.27 0 0 1-1.274 1.265m-12.744-2.529a1.27 1.27 0 0 0-1.275 1.264c0 .698.57 1.265 1.275 1.265m10.195-4.804v5.784c0 2.592-2.102 4.73-4.885 5.17.345.053.698.09 1.062.09 3.295 0 5.947-2.346 5.947-5.26v-5.784h-2.124z" color="#000" overflow="visible"/><path fill="#f4f7f8" style="isolation:auto;mix-blend-mode:normal;solid-color:#000;solid-opacity:1" d="M374.46 1893.76v5.785c0 2.914 2.652 5.26 5.947 5.26.363 0 .717-.036 1.062-.09-2.784-.44-4.885-2.578-4.885-5.17v-5.785h-2.124z" color="#000" overflow="visible"/><path fill="#6ca6fd" d="M373.185 1893.537v2.491h1.275v-2.148" color="#000" overflow="visible" style="isolation:auto;mix-blend-mode:normal;solid-color:#000;solid-opacity:1"/><path fill="#4ebfeb" d="m380.759 1919.797 6.483 5.785c.556.496 1.453.543 2.074.102l2.131-1.507-1.163-3.451-1.155.712-.068-.062-.357-.252-.358-.253-.358-.252-.358-.252-.358-.253-.358-.252-.357-.252-.358-.253-.358-.252-.358-.252-.358-.253-.358-.252-.357-.252-.358-.253-.358-.252-.358-.252" color="#000" overflow="visible" style="isolation:auto;mix-blend-mode:normal;solid-color:#000;solid-opacity:1"/><path fill="#dae7fc" style="isolation:auto;mix-blend-mode:normal;solid-color:#000;solid-opacity:1" d="M379.521 922.264c-.488 0-.88.328-.88.736 0 3.437-1.176 3.923-1.176 5.887l.01.092-1.432 1.01-1.431 1.007h.004c-.336.24-.672.478-1.01.715l.004-.03v-1.9h-4.248v5.44c.003.19.01.386.01.582l-.004.011.004.004c-.001.574.027 1.149.412 1.612.72 1.017 2.347 1.13 3.205.228l.011-.119c.066-.02.13-.043.193-.072l-.14.133.156-.14h.002c.088-.042.172-.093.252-.153 2.205-1.948 4.393-3.916 6.592-5.871a.716.716 0 0 0 .195-.194l.152.006v-.44c0-.004.004-.01.004-.015v-.092l-.004.004V923c0-.407-.392-.736-.88-.736zm.311 8.96h.018l-.008.009-.01-.008z" color="#000" overflow="visible" transform="translate(0 988.362)"/><path fill="#dae7fc" d="M381.292 1910.626c-.552-.037-.98.477-.881 1.009v7.975c.302-.01.473.368.725.524 2.062 1.835 4.116 3.68 6.183 5.508.173.062.634.491.27.158.384.298.808.787 1.414.812 1.259.237 2.537-.878 2.449-2.162v-6.307h-4.248c.001.642-.003 1.283.002 1.924l-3.867-2.726c.086-1.448-.853-2.69-1.022-4.1-.254-.78.11-1.738-.402-2.4a.973.973 0 0 0-.623-.215zm-.328 8.96c.039-.018.004.026 0 0z" color="#000" overflow="visible" style="isolation:auto;mix-blend-mode:normal;solid-color:#000;solid-opacity:1"/><path fill="#b2cdf8" d="M391.027 1918.145v6.385a2.11 2.11 0 0 1-2.124 2.107c-.303 0-.59-.065-.85-.178a2.1 2.1 0 0 0 1.275-1.93v-6.384h1.7z" color="#000" overflow="visible" style="isolation:auto;mix-blend-mode:normal;solid-color:#000;solid-opacity:1"/><rect width=".85" height="5.057" x="374.035" y="1914.409" fill="none" color="#000" overflow="visible" rx="0" style="isolation:auto;mix-blend-mode:normal;solid-color:#000;solid-opacity:1" ry="0"/><path fill="#f4f7f8" style="isolation:auto;mix-blend-mode:normal;solid-color:#000;solid-opacity:1" d="M369.787 1918.145v6.385a2.11 2.11 0 0 0 2.124 2.107c.303 0 .59-.065.85-.178a2.1 2.1 0 0 1-1.275-1.93v-6.384h-1.7z" color="#000" overflow="visible"/><path fill="none" d="m380.055 1919.797-6.483 5.785c-.557.496-1.453.543-2.074.102l-2.131-1.507 1.163-3.451 1.154.712.068-.062.358-.252.358-.253.358-.252.358-.252.358-.253.357-.252.358-.252.358-.253.358-.252.358-.252.358-.253.357-.252.358-.252.358-.253.358-.252.358-.252" color="#000" overflow="visible" style="isolation:auto;mix-blend-mode:normal;solid-color:#000;solid-opacity:1"/><path fill="#ea4c89" d="M379.081 1883.267c-3.719 0-6.714 2.967-6.715 6.655l-.001 1.858v1.916h15.002a.96.96 0 0 0 .965-.952v-2.808c.001-3.69-2.99-6.66-6.709-6.662h-2.542z" color="#000" overflow="visible" style="isolation:auto;mix-blend-mode:normal;solid-color:#000;solid-opacity:1"/><path fill="#ea4c89" style="isolation:auto;mix-blend-mode:normal;solid-color:#000;solid-opacity:1" d="M379.081 1883.267c-3.719 0-6.714 2.967-6.715 6.655l-.001 1.858v1.916h15.002a.96.96 0 0 0 .965-.952v-2.808c.001-3.69-2.99-6.66-6.709-6.662h-2.542z" color="#000" overflow="visible"/><path fill="#b2cdf8" style="isolation:auto;mix-blend-mode:normal;solid-color:#000;solid-opacity:1" d="M379.081 1883.267c-3.719 0-6.714 2.967-6.715 6.656l-.001 3.77h10.825v-3.77c.002-1.943-1.207-6.66-4.109-6.66z" color="#000" overflow="visible"/><path fill="#dae7fc" style="isolation:auto;mix-blend-mode:normal;solid-color:#000;solid-opacity:1" d="M379.08 1883.267c-3.718 0-6.713 2.967-6.714 6.656l-.001 3.77h10.825-9.046l.001-3.77c.001-3.313 2.418-6.043 5.604-6.564a2.522 2.522 0 0 0-.668-.091z" color="#000" overflow="visible"/><path fill="#6ca6fd" style="isolation:auto;mix-blend-mode:normal;solid-color:#000;solid-opacity:1" d="M383.196 1892.145h-15.164a.778.778 0 0 0-.783.776c0 .43.35.777.783.777h15.164z" color="#000" overflow="visible"/><path fill="#6ca6fd" d="M379.08 1883.266c2.903 0 4.112 4.718 4.11 6.661v3.769h4.177a.96.96 0 0 0 .965-.953v-2.808c.001-3.689-2.99-6.66-6.709-6.662h-2.543zm-3.591 1.028zm-1.791 1.64zm-.671 1.097zm-.661 2.892-.001 1.857v1.916h6.014-6.014v-3.77z" color="#000" overflow="visible" style="isolation:auto;mix-blend-mode:normal;solid-color:#000;solid-opacity:1"/><path fill="#498ffd" style="isolation:auto;mix-blend-mode:normal;solid-color:#000;solid-opacity:1" d="M379.08 1883.266h-.045H379.979c3.719 0 6.71 2.973 6.709 6.662l-.001 1.85h.001v.958a.96.96 0 0 1-.965.952h1.643a.96.96 0 0 0 .965-.952v-2.808c.001-3.689-2.99-6.66-6.71-6.662h-2.541zm-1.027.08zm-.54.101zm-.635.183zm-4.512 6.292-.001 1.857v1.914h6.014-6.014v-3.77z" color="#000" overflow="visible"/><path fill="#dae7fc" style="isolation:auto;mix-blend-mode:normal;solid-color:#000;solid-opacity:1" d="M368.032 1892.145a.778.778 0 0 0-.783.776c0 .43.35.777.783.777h1.948a.778.778 0 0 1-.783-.777c0-.43.35-.776.783-.776h-1.948z" color="#000" overflow="visible"/><path fill="#0e7bff" style="isolation:auto;mix-blend-mode:normal;solid-color:#000;solid-opacity:1" d="M378.54 1897.975a.425.421 0 0 1-.425.421.425.421 0 0 1-.425-.421.425.421 0 0 1 .425-.422.425.421 0 0 1 .425.422zm4.583 0a.425.421 0 0 1-.424.421.425.421 0 0 1-.425-.421.425.421 0 0 1 .425-.422.425.421 0 0 1 .424.422z" color="#000" overflow="visible"/><path fill="#0e7bff" style="line-height:normal;text-indent:0;text-align:start;text-decoration-line:none;text-decoration-style:solid;text-decoration-color:#000;text-transform:none;block-progression:tb;white-space:normal;isolation:auto;mix-blend-mode:normal;solid-color:#000;solid-opacity:1" d="M376.986 1897.428a.5.5 0 0 1-.406-.758 1.785 1.785 0 0 1 2.373-.672.5.5 0 0 1-.47.883.774.774 0 0 0-1.04.29.5.5 0 0 1-.457.257zm6.827 0a.5.5 0 0 1-.442-.256.772.772 0 0 0-.516-.367.798.798 0 0 0-.623.138.5.5 0 0 1-.597-.802 1.782 1.782 0 0 1 2.6.529.5.5 0 0 1-.423.758zm-5.27 3.2a.5.5 0 0 0-.408.759 2.618 2.618 0 0 0 2.271 1.303 2.639 2.639 0 0 0 2.272-1.303.5.5 0 1 0-.864-.504c-.14.24-.342.445-.593.59a1.641 1.641 0 0 1-1.625.002.5.5 0 0 0-.002 0 1.617 1.617 0 0 1-.594-.59.5.5 0 0 0-.457-.254z" color="#000" font-family="sans-serif" font-weight="400" overflow="visible"/><path fill="#0e7bff" fill-rule="evenodd" style="line-height:normal;text-indent:0;text-align:start;text-decoration-line:none;text-decoration-style:solid;text-decoration-color:#000;text-transform:none;block-progression:tb;white-space:normal;isolation:auto;mix-blend-mode:normal;solid-color:#000;solid-opacity:1" d="M380.398 1898.31a.5.5 0 0 0-.492.508v.84a.5.5 0 1 0 1 0v-.84a.5.5 0 0 0-.508-.507z" color="#000" font-family="sans-serif" font-weight="400" overflow="visible"/><path fill="#0e7bff" style="line-height:normal;text-indent:0;text-align:start;text-decoration-line:none;text-decoration-style:solid;text-decoration-color:#000;text-transform:none;block-progression:tb;white-space:normal;isolation:auto;mix-blend-mode:normal;solid-color:#000;solid-opacity:1" d="M378.886 1882.778c-3.89.109-7.018 3.252-7.02 7.143l-.002 1.722h-3.83c-.7 0-1.283.577-1.283 1.278 0 .7.583 1.275 1.283 1.275h4.65v1.834c0 .042.005.083.016.123-.27.31-.44.707-.44 1.147 0 .944.763 1.715 1.7 1.756v.488c0 2.216 1.383 4.113 3.398 5.078v1.338c-4.776.46-8.5 4.432-8.5 9.29v7.852c0 .017.002.034.004.051v1.375c0 1.438 1.182 2.608 2.625 2.608.614 0 1.175-.22 1.623-.572v3.365h-7.687v1h8.119c.045.01.091.01.137 0h13.5c.045.01.091.01.136 0h8.108v-1h-7.676v-3.33c.441.333.988.537 1.582.537a2.62 2.62 0 0 0 2.623-2.608v-1.382l.002-.045v-7.852c0-4.86-3.722-8.832-8.498-9.293v-1.334c2.015-.965 3.398-2.862 3.398-5.078v-.488c.938-.04 1.7-.811 1.7-1.756 0-.44-.172-.837-.442-1.147a.506.506 0 0 0 .018-.125v-2.052c.416-.257.7-.71.703-1.229v-2.809c0-3.959-3.224-7.16-7.209-7.162h-2.738zm.16.992H381.624c3.452 0 6.21 2.744 6.209 6.162v2.805a.45.45 0 0 1-.465.455h-19.334c-.168 0-.283-.115-.283-.275a.27.27 0 0 1 .283-.278h4.33a.5.5 0 0 0 .5-.5l.002-2.222c.002-3.406 2.744-6.129 6.18-6.149zm-5.362 10.426h.276v1.334h-.276zm1.276 0h10.894v5.348c0 2.61-2.39 4.76-5.447 4.76s-5.447-2.15-5.447-4.76v-5.348zm11.894 0h.276v1.332h-.276zm-12.894 2.356v1.498a.754.754 0 0 1-.7-.75c0-.4.303-.71.7-.748zm12.894 0c.397.038.7.348.7.748s-.303.712-.7.75zm-4.398 8.449v1.457c0 .241-.15.5-.514.732-.363.232-.915.399-1.535.399-.62 0-1.17-.166-1.533-.399-.316-.202-.465-.423-.5-.636 0-.131-.016-.174-.016-.329v-1.222a7.138 7.138 0 0 0 4.098-.002zm.918 1.95c4.268.417 7.576 3.946 7.576 8.298v2.394h-3.246V1914.35h-1v4.746l-2.213-1.555h-.002a9.116 9.116 0 0 1-.693-.562c-.049-.936-.308-1.63-.569-2.322-.284-.756-.554-1.626-.554-3.287 0-.73-.67-1.237-1.383-1.237l.002-.01c-.326 0-.637.118-.885.303a1.483 1.483 0 0 0-.885-.305c-.712 0-1.38.508-1.38 1.237 0 1.732-.271 2.58-.555 3.318-.284.738-.621 1.428-.621 2.568 0 .016 0 .033.002.05l-.02-.2-1.023.723c-.01.01-.019.012-.028.019l-.142.1-.092.064-1.553 1.09v-4.744h-1V1917.643h-3.246v-2.393c0-4.352 3.307-7.881 7.576-8.299.148.443.483.817.895 1.08.558.357 1.28.557 2.072.557s1.516-.2 2.074-.557c.414-.264.746-.638.893-1.082zm-3.852 4.175c.264 0 .381.15.381.236v7.801a.427.427 0 0 1-.113.21.544.544 0 0 0-.065.048l-6.363 5.601h-.006a.511.511 0 0 0-.137.122l-.006.01-.492.431a.351.351 0 0 0-.035.033h-.006l-.006.01a.37.37 0 0 0-.037.033c-.293.291-.695.47-1.15.47-.911 0-1.625-.71-1.625-1.607v-1.38l.002-.045v-4.46h3.246V1920.04a.5.5 0 0 0 .691.468h.012a.494.494 0 0 0 .12-.064l.89-.625a.487.487 0 0 0 .078-.049l1.432-1.008 1.43-1.01a.5.5 0 0 0 .21-.456l-.006-.053c.002-.945.25-1.414.553-2.2.303-.788.621-1.836.621-3.677 0-.086.117-.237.38-.237zm1.77 0c.264 0 .383.15.383.236 0 1.776.316 2.834.619 3.639.303.804.554 1.3.554 2.181v.02a.5.5 0 0 0 .202.547l1.363.957c.009.01.076.055.076.055h-.006l1.432 1.008c.026.02.054.037.084.051H386l.88.62c.042.03.087.053.135.07.015.01.03.01.045.013a.5.5 0 0 0 .643-.484v-1.399h3.246v4.457c0 .016 0 .033.002.05v1.378a1.6 1.6 0 0 1-1.623 1.607c-.455 0-.86-.18-1.152-.47a.468.468 0 0 0-.063-.057l-.008-.01h-.008l-.006-.01-6.945-6.114-.03-.025-.01-.012c-.006 0-.011-.01-.017-.014a.492.492 0 0 0-.069-.05.427.427 0 0 1-.11-.208v-7.8c0-.086.116-.237.38-.237zm-.854 8.996c.03.028.02.079.057.101l-.067-.05.141.122 6.178 5.438v4.191H374.11v-4.232l6.135-5.4.111-.096a.505.505 0 0 0 .082-.076z" color="#000" font-family="sans-serif" font-weight="400" overflow="visible"/></g></svg>